<svg width="21" height="20" viewBox="0 0 21 20" fill="none" xmlns="http://www.w3.org/2000/svg">
<path id="Vector" d="M9.04523 20C7.77219 19.866 6.58727 19.5186 5.49045 18.9578C4.39296 18.3963 3.43819 17.6673 2.62613 16.7709C1.8134 15.875 1.17253 14.8492 0.703518 13.6935C0.234506 12.5377 0 11.3065 0 10C0 8.47571 0.305863 7.06868 0.917588 5.77889C1.52864 4.48911 2.36181 3.38358 3.41709 2.46231H1.00503V0.452261H7.03518V6.48241H5.02513V3.74372C4.10385 4.48074 3.37085 5.38961 2.82613 6.47035C2.28208 7.55042 2.01005 8.72697 2.01005 10C2.01005 12.0603 2.68442 13.8399 4.03317 15.3387C5.38124 16.8382 7.05193 17.7136 9.04523 17.9648V20ZM8.61809 14.6231L4.37186 10.3518L5.77889 8.94472L8.61809 11.7839L14.3216 6.0804L15.7286 7.51256L8.61809 14.6231ZM13.0653 19.5477V13.5176H15.0754V16.2563C15.9967 15.5025 16.7296 14.5896 17.2744 13.5176C17.8184 12.4456 18.0905 11.273 18.0905 10C18.0905 7.9397 17.4164 6.1598 16.0683 4.6603C14.7196 3.16147 13.0486 2.28643 11.0553 2.03518V0C13.6013 0.251256 15.7454 1.32328 17.4874 3.21608C19.2295 5.10888 20.1005 7.37018 20.1005 10C20.1005 11.5243 19.7946 12.9313 19.1829 14.2211C18.5719 15.5109 17.7387 16.6164 16.6834 17.5377H19.0955V19.5477H13.0653Z" fill="#B3EB76"/>
</svg>
