<svg width="77" height="76" viewBox="0 0 77 76" fill="none" xmlns="http://www.w3.org/2000/svg">
<rect width="75" height="75" transform="translate(0.925087 0.796387) rotate(-0.41)" fill="#2B3533"/>
<path d="M46.4712 33.2838L49.5962 33.2614L49.5738 30.1365L46.4489 30.1588L46.4712 33.2838ZM46.516 39.5336L49.6409 39.5112L49.6185 36.3863L46.4936 36.4087L46.516 39.5336ZM46.5607 45.7834L49.6856 45.7611L49.6632 42.6362L46.5383 42.6585L46.5607 45.7834ZM46.6054 52.0333L46.583 48.9084L52.8329 48.8636L52.6763 26.9892L38.6142 27.0898L38.6299 29.2773L35.4887 27.0341L35.4669 23.9873L55.7789 23.8419L55.9802 51.9662L46.6054 52.0333ZM21.606 52.2122L21.4942 36.5876L32.3755 28.697L43.3687 36.431L43.4805 52.0556L34.1057 52.1227L34.0498 44.3104L30.9249 44.3328L30.9808 52.1451L21.606 52.2122ZM24.7086 49.0649L27.8335 49.0425L27.7776 41.2302L37.1524 41.1631L37.2083 48.9754L40.3332 48.9531L40.2549 38.0159L32.4029 32.525L24.6303 38.1277L24.7086 49.0649Z" fill="#F2F2F2"/>
</svg>
