<svg width="20" height="20" viewBox="0 0 20 20" fill="none" xmlns="http://www.w3.org/2000/svg">
<path id="Vector" d="M8 6H16V4H8V6ZM8 9H16V7H8V9ZM8 12H13V10H8V12ZM5 6C5.28333 6 5.521 5.90433 5.713 5.713C5.90433 5.521 6 5.28333 6 5C6 4.71667 5.90433 4.479 5.713 4.287C5.521 4.09567 5.28333 4 5 4C4.71667 4 4.479 4.09567 4.287 4.287C4.09567 4.479 4 4.71667 4 5C4 5.28333 4.09567 5.521 4.287 5.713C4.479 5.90433 4.71667 6 5 6ZM5 9C5.28333 9 5.521 8.904 5.713 8.712C5.90433 8.52067 6 8.28333 6 8C6 7.71667 5.90433 7.479 5.713 7.287C5.521 7.09567 5.28333 7 5 7C4.71667 7 4.479 7.09567 4.287 7.287C4.09567 7.479 4 7.71667 4 8C4 8.28333 4.09567 8.52067 4.287 8.712C4.479 8.904 4.71667 9 5 9ZM5 12C5.28333 12 5.521 11.904 5.713 11.712C5.90433 11.5207 6 11.2833 6 11C6 10.7167 5.90433 10.479 5.713 10.287C5.521 10.0957 5.28333 10 5 10C4.71667 10 4.479 10.0957 4.287 10.287C4.09567 10.479 4 10.7167 4 11C4 11.2833 4.09567 11.5207 4.287 11.712C4.479 11.904 4.71667 12 5 12ZM0 20V2C0 1.45 0.196 0.979 0.588 0.587C0.979333 0.195667 1.45 0 2 0H18C18.55 0 19.021 0.195667 19.413 0.587C19.8043 0.979 20 1.45 20 2V14C20 14.55 19.8043 15.021 19.413 15.413C19.021 15.8043 18.55 16 18 16H4L0 20ZM2 15.175L3.175 14H18V2H2V15.175Z" fill="#B3EB76"/>
</svg>
