<svg width="22" height="20" viewBox="0 0 22 20" fill="none" xmlns="http://www.w3.org/2000/svg">
<g id="Group">
<path id="Vector" fillRule="evenodd" clipRule="evenodd" d="M19 0.5H2.11111C0.95 0.5 0 1.45 0 2.61111V17.3889C0 18.55 0.95 19.5 2.11111 19.5H19C20.1611 19.5 21.1111 18.55 21.1111 17.3889V2.61111C21.1111 1.45 20.1611 0.5 19 0.5ZM19 17.3889H2.11111V2.61111H19V17.3889Z" fill="#B3EB76"/>
<path id="Vector_2" fillRule="evenodd" clipRule="evenodd" d="M18.3773 8.33287L16.8784 6.83398L13.5323 10.1801L12.044 8.68121L10.5556 10.1695L13.5323 13.1673L18.3773 8.33287Z" fill="#B3EB76"/>
<path id="Vector_3" d="M8.44431 4.72266H3.16653V6.83377H8.44431V4.72266Z" fill="#B3EB76"/>
<path id="Vector_4" d="M8.44431 8.94482H3.16653V11.0559H8.44431V8.94482Z" fill="#B3EB76"/>
<path id="Vector_5" d="M8.44431 13.166H3.16653V15.2771H8.44431V13.166Z" fill="#B3EB76"/>
</g>
</svg>
